<svg xmlns="http://www.w3.org/2000/svg" xmlns:xlink="http://www.w3.org/1999/xlink" width="40" zoomAndPan="magnify" viewBox="0 0 30 30.000001" height="40" preserveAspectRatio="xMidYMid meet" version="1.0"><defs><clipPath id="b8c9da3803"><path d="M 0.484375 0 L 29.515625 0 L 29.515625 29.03125 L 0.484375 29.03125 Z M 0.484375 0 " clip-rule="nonzero"/></clipPath><clipPath id="1f9eb15192"><path d="M 5.867188 7.824219 L 24 7.824219 L 24 20.890625 L 5.867188 20.890625 Z M 5.867188 7.824219 " clip-rule="nonzero"/></clipPath></defs><g clip-path="url(#b8c9da3803)"><path fill="#ffffff" d="M 0.484375 0 L 29.515625 0 L 29.515625 29.03125 L 0.484375 29.03125 Z M 0.484375 0 " fill-opacity="1" fill-rule="nonzero"/><path fill="#ffffff" d="M 0.484375 0 L 29.515625 0 L 29.515625 29.03125 L 0.484375 29.03125 Z M 0.484375 0 " fill-opacity="1" fill-rule="nonzero"/></g><g clip-path="url(#1f9eb15192)"><path fill="#000000" d="M 22.1875 7.824219 L 7.691406 7.824219 C 7.453125 7.824219 7.21875 7.871094 7 7.960938 C 6.777344 8.050781 6.582031 8.179688 6.410156 8.347656 C 6.242188 8.515625 6.109375 8.707031 6.015625 8.925781 C 5.925781 9.144531 5.878906 9.371094 5.878906 9.609375 L 5.878906 19.109375 C 5.878906 19.34375 5.925781 19.574219 6.015625 19.789062 C 6.109375 20.007812 6.242188 20.203125 6.410156 20.367188 C 6.582031 20.535156 6.777344 20.664062 7 20.753906 C 7.21875 20.84375 7.453125 20.890625 7.691406 20.890625 L 22.1875 20.890625 C 22.425781 20.890625 22.660156 20.84375 22.878906 20.753906 C 23.101562 20.664062 23.296875 20.535156 23.46875 20.367188 C 23.636719 20.203125 23.769531 20.007812 23.859375 19.789062 C 23.953125 19.574219 24 19.34375 24 19.109375 L 24 9.609375 C 24 9.371094 23.953125 9.144531 23.859375 8.925781 C 23.769531 8.707031 23.636719 8.515625 23.46875 8.347656 C 23.296875 8.179688 23.101562 8.050781 22.878906 7.960938 C 22.660156 7.871094 22.425781 7.824219 22.1875 7.824219 Z M 7.085938 9.710938 L 12.101562 13.933594 L 7.085938 18.863281 Z M 15.332031 14.433594 C 15.21875 14.527344 15.089844 14.578125 14.9375 14.578125 C 14.789062 14.578125 14.660156 14.527344 14.546875 14.433594 L 8.113281 9.015625 L 21.765625 9.015625 Z M 13.019531 14.710938 L 13.761719 15.332031 C 13.925781 15.46875 14.109375 15.570312 14.3125 15.640625 C 14.515625 15.710938 14.722656 15.75 14.9375 15.75 C 15.152344 15.75 15.363281 15.710938 15.566406 15.640625 C 15.769531 15.570312 15.953125 15.46875 16.117188 15.332031 L 16.859375 14.710938 L 21.9375 19.703125 L 7.941406 19.703125 Z M 17.777344 13.9375 L 22.792969 9.710938 L 22.792969 18.863281 Z M 17.777344 13.9375 " fill-opacity="1" fill-rule="nonzero"/></g></svg>