<svg xmlns="http://www.w3.org/2000/svg" xmlns:xlink="http://www.w3.org/1999/xlink" width="40" zoomAndPan="magnify" viewBox="0 0 30 30.000001" height="40" preserveAspectRatio="xMidYMid meet" version="1.0"><defs><clipPath id="d9b6d6613e"><path d="M 0.484375 0 L 29.515625 0 L 29.515625 29.03125 L 0.484375 29.03125 Z M 0.484375 0 " clip-rule="nonzero"/></clipPath></defs><g clip-path="url(#d9b6d6613e)"><path fill="#ffffff" d="M 0.484375 0 L 29.515625 0 L 29.515625 29.03125 L 0.484375 29.03125 Z M 0.484375 0 " fill-opacity="1" fill-rule="nonzero"/><path fill="#ffffff" d="M 0.484375 0 L 29.515625 0 L 29.515625 29.03125 L 0.484375 29.03125 Z M 0.484375 0 " fill-opacity="1" fill-rule="nonzero"/></g><path fill="#000000" d="M 16.691406 25.398438 L 16.691406 15.484375 L 20.035156 15.484375 L 20.53125 11.601562 L 16.691406 11.601562 L 16.691406 9.128906 C 16.691406 8.011719 17.003906 7.242188 18.609375 7.242188 L 20.648438 7.242188 L 20.648438 3.78125 C 19.65625 3.675781 18.660156 3.625 17.664062 3.628906 C 14.707031 3.628906 12.675781 5.433594 12.675781 8.746094 L 12.675781 11.597656 L 9.351562 11.597656 L 9.351562 15.476562 L 12.683594 15.476562 L 12.683594 25.398438 Z M 16.691406 25.398438 " fill-opacity="1" fill-rule="nonzero"/></svg>