<svg xmlns="http://www.w3.org/2000/svg" xmlns:xlink="http://www.w3.org/1999/xlink" width="40" zoomAndPan="magnify" viewBox="0 0 30 30.000001" height="40" preserveAspectRatio="xMidYMid meet" version="1.0"><defs><clipPath id="8c0f6dfca6"><path d="M 0.484375 0 L 29.515625 0 L 29.515625 29.03125 L 0.484375 29.03125 Z M 0.484375 0 " clip-rule="nonzero"/></clipPath><clipPath id="6083b8ae19"><path d="M 5.527344 5.042969 L 24.398438 5.042969 L 24.398438 23.914062 L 5.527344 23.914062 Z M 5.527344 5.042969 " clip-rule="nonzero"/></clipPath></defs><g clip-path="url(#8c0f6dfca6)"><path fill="#ffffff" d="M 0.484375 0 L 29.515625 0 L 29.515625 29.03125 L 0.484375 29.03125 Z M 0.484375 0 " fill-opacity="1" fill-rule="nonzero"/><path fill="#ffffff" d="M 0.484375 0 L 29.515625 0 L 29.515625 29.03125 L 0.484375 29.03125 Z M 0.484375 0 " fill-opacity="1" fill-rule="nonzero"/></g><g clip-path="url(#6083b8ae19)"><path fill="#000000" d="M 11.078125 5.042969 C 8.03125 5.042969 5.527344 7.542969 5.527344 10.59375 L 5.527344 18.367188 C 5.527344 21.414062 8.027344 23.914062 11.078125 23.914062 L 18.851562 23.914062 C 21.894531 23.914062 24.398438 21.414062 24.398438 18.367188 L 24.398438 10.59375 C 24.398438 7.546875 21.898438 5.042969 18.851562 5.042969 Z M 11.078125 6.761719 L 18.851562 6.761719 C 20.972656 6.761719 22.683594 8.472656 22.683594 10.59375 L 22.683594 18.367188 C 22.683594 20.488281 20.972656 22.199219 18.851562 22.199219 L 11.078125 22.199219 C 8.957031 22.199219 7.242188 20.488281 7.242188 18.367188 L 7.242188 10.59375 C 7.242188 8.472656 8.957031 6.761719 11.078125 6.761719 Z M 20.03125 8.636719 C 19.597656 8.636719 19.253906 8.980469 19.253906 9.414062 C 19.253906 9.847656 19.597656 10.191406 20.03125 10.191406 C 20.460938 10.191406 20.808594 9.847656 20.808594 9.414062 C 20.808594 8.980469 20.460938 8.636719 20.03125 8.636719 Z M 14.964844 9.332031 C 12.132812 9.332031 9.816406 11.648438 9.816406 14.480469 C 9.816406 17.3125 12.132812 19.625 14.964844 19.625 C 17.796875 19.625 20.109375 17.3125 20.109375 14.480469 C 20.109375 11.648438 17.796875 9.332031 14.964844 9.332031 Z M 14.964844 11.046875 C 16.871094 11.046875 18.394531 12.574219 18.394531 14.480469 C 18.394531 16.386719 16.871094 17.910156 14.964844 17.910156 C 13.058594 17.910156 11.53125 16.386719 11.53125 14.480469 C 11.53125 12.574219 13.058594 11.046875 14.964844 11.046875 Z M 14.964844 11.046875 " fill-opacity="1" fill-rule="nonzero"/></g></svg>