<svg xmlns="http://www.w3.org/2000/svg" xmlns:xlink="http://www.w3.org/1999/xlink" width="40" zoomAndPan="magnify" viewBox="0 0 30 30.000001" height="40" preserveAspectRatio="xMidYMid meet" version="1.0"><defs><clipPath id="48f93943d5"><path d="M 0.484375 0 L 29.515625 0 L 29.515625 29.03125 L 0.484375 29.03125 Z M 0.484375 0 " clip-rule="nonzero"/></clipPath><clipPath id="84cf03bfb1"><path d="M 7.074219 6 L 23.042969 6 L 23.042969 22.6875 L 7.074219 22.6875 Z M 7.074219 6 " clip-rule="nonzero"/></clipPath><clipPath id="43c08ea640"><path d="M 7.074219 6 L 15 6 L 15 14 L 7.074219 14 Z M 7.074219 6 " clip-rule="nonzero"/></clipPath><clipPath id="fdb251aa67"><path d="M 15 14 L 23.042969 14 L 23.042969 22.6875 L 15 22.6875 Z M 15 14 " clip-rule="nonzero"/></clipPath></defs><g clip-path="url(#48f93943d5)"><path fill="#ffffff" d="M 0.484375 0 L 29.515625 0 L 29.515625 29.03125 L 0.484375 29.03125 Z M 0.484375 0 " fill-opacity="1" fill-rule="nonzero"/><path fill="#ffffff" d="M 0.484375 0 L 29.515625 0 L 29.515625 29.03125 L 0.484375 29.03125 Z M 0.484375 0 " fill-opacity="1" fill-rule="nonzero"/></g><g clip-path="url(#84cf03bfb1)"><path fill="#000000" d="M 22.328125 6.398438 L 17.539062 13.980469 L 14.40625 18.46875 L 14.265625 18.683594 L 14.273438 18.695312 L 14.121094 18.941406 L 14.101562 18.964844 L 13.984375 19.078125 L 13.984375 19.167969 L 12.066406 22.285156 L 7.792969 22.285156 L 12.582031 14.699219 L 15.703125 10.214844 L 15.839844 10 L 15.832031 9.984375 L 16.339844 9.160156 L 16.359375 9.136719 L 16.484375 9.023438 L 16.484375 8.921875 L 18.03125 6.398438 L 22.328125 6.398438 M 23.042969 6.007812 L 17.804688 6.007812 L 16.082031 8.816406 L 16.082031 8.855469 L 16.019531 8.914062 L 15.363281 9.984375 L 15.371094 9.996094 L 12.242188 14.488281 L 7.074219 22.675781 L 12.292969 22.675781 L 14.386719 19.273438 L 14.386719 19.238281 L 14.441406 19.183594 L 14.742188 18.695312 L 14.734375 18.6875 L 17.875 14.191406 Z M 23.042969 6.007812 " fill-opacity="1" fill-rule="nonzero"/></g><g clip-path="url(#43c08ea640)"><path fill="#000000" d="M 12.066406 6.398438 L 14.261719 9.964844 L 12.050781 13.140625 L 10.035156 9.945312 L 10.03125 9.941406 L 10.027344 9.933594 L 10.011719 9.914062 L 7.792969 6.398438 L 12.066406 6.398438 M 12.292969 6.007812 L 7.074219 6.007812 L 9.671875 10.125 L 9.691406 10.152344 L 12.03125 13.859375 L 14.734375 9.976562 Z M 12.292969 6.007812 " fill-opacity="1" fill-rule="nonzero"/></g><g clip-path="url(#fdb251aa67)"><path fill="#000000" d="M 18.066406 15.539062 L 22.328125 22.285156 L 18.03125 22.285156 L 15.84375 18.71875 L 18.066406 15.539062 M 18.085938 14.820312 L 15.371094 18.707031 L 17.804688 22.675781 L 23.042969 22.675781 Z M 18.085938 14.820312 " fill-opacity="1" fill-rule="nonzero"/></g></svg>