<svg xmlns="http://www.w3.org/2000/svg" xmlns:xlink="http://www.w3.org/1999/xlink" width="40" zoomAndPan="magnify" viewBox="0 0 30 30.000001" height="40" preserveAspectRatio="xMidYMid meet" version="1.0"><defs><clipPath id="db973a8955"><path d="M 0.484375 0 L 29.515625 0 L 29.515625 29.03125 L 0.484375 29.03125 Z M 0.484375 0 " clip-rule="nonzero"/></clipPath><clipPath id="8df3f42f33"><path d="M 4.738281 7.21875 L 25.0625 7.21875 L 25.0625 21.734375 L 4.738281 21.734375 Z M 4.738281 7.21875 " clip-rule="nonzero"/></clipPath></defs><g clip-path="url(#db973a8955)"><path fill="#ffffff" d="M 0.484375 0 L 29.515625 0 L 29.515625 29.03125 L 0.484375 29.03125 Z M 0.484375 0 " fill-opacity="1" fill-rule="nonzero"/><path fill="#ffffff" d="M 0.484375 0 L 29.515625 0 L 29.515625 29.03125 L 0.484375 29.03125 Z M 0.484375 0 " fill-opacity="1" fill-rule="nonzero"/></g><g clip-path="url(#8df3f42f33)"><path fill="#000000" d="M 21.402344 21.734375 L 8.398438 21.734375 C 6.386719 21.734375 4.746094 20.089844 4.746094 18.066406 L 4.746094 10.882812 C 4.746094 8.863281 6.386719 7.21875 8.398438 7.21875 L 21.402344 7.21875 C 23.417969 7.21875 25.054688 8.863281 25.054688 10.882812 L 25.054688 18.066406 C 25.054688 20.089844 23.417969 21.734375 21.402344 21.734375 Z M 8.398438 8.03125 C 6.832031 8.03125 5.558594 9.3125 5.558594 10.882812 L 5.558594 18.066406 C 5.558594 19.640625 6.832031 20.921875 8.398438 20.921875 L 21.402344 20.921875 C 22.972656 20.921875 24.246094 19.640625 24.246094 18.066406 L 24.246094 10.882812 C 24.246094 9.3125 22.972656 8.03125 21.402344 8.03125 Z M 13.167969 17.714844 C 12.996094 17.714844 12.820312 17.667969 12.664062 17.578125 C 12.347656 17.394531 12.15625 17.0625 12.15625 16.699219 L 12.15625 11.683594 C 12.15625 11.316406 12.347656 10.988281 12.664062 10.804688 C 12.980469 10.621094 13.355469 10.621094 13.671875 10.804688 L 17.996094 13.3125 C 18.3125 13.496094 18.503906 13.824219 18.503906 14.191406 C 18.503906 14.558594 18.3125 14.886719 17.996094 15.070312 L 13.671875 17.578125 C 13.515625 17.667969 13.339844 17.714844 13.167969 17.714844 Z M 13.167969 11.480469 C 13.121094 11.480469 13.085938 11.5 13.066406 11.511719 C 13.039062 11.527344 12.96875 11.578125 12.96875 11.683594 L 12.96875 16.699219 C 12.96875 16.800781 13.039062 16.855469 13.066406 16.871094 C 13.097656 16.890625 13.179688 16.925781 13.269531 16.871094 L 17.59375 14.367188 C 17.683594 14.3125 17.691406 14.226562 17.691406 14.191406 C 17.691406 14.15625 17.683594 14.070312 17.59375 14.015625 L 13.269531 11.511719 C 13.234375 11.488281 13.199219 11.480469 13.167969 11.480469 Z M 17.796875 14.71875 Z M 17.796875 14.71875 " fill-opacity="1" fill-rule="nonzero"/></g></svg>